HIERARCHY
ROOT hip
{
	OFFSET 0.000000 0.000000 0.000000 
	CHANNELS 6 Xposition Yposition Zposition Xrotation Zrotation Yrotation
	JOINT abdomen
	{
		OFFSET 0.000000 3.402643 0.000000 
		CHANNELS 3 Xrotation Zrotation Yrotation
		JOINT chest
		{
			OFFSET 0.000000 8.438565 -0.680529 
			CHANNELS 3 Xrotation Zrotation Yrotation
			JOINT neck
			{
				OFFSET 0.000000 10.207942 -0.272212 
				CHANNELS 3 Xrotation Zrotation Yrotation
				JOINT head
				{
					OFFSET 0.000000 3.130431 0.000000 
					CHANNELS 3 Xrotation Zrotation Yrotation
					End Site
					{
						OFFSET 0.000000 3.130435 0.000000 
					}
				}
			}
			JOINT lCollar
			{
				OFFSET 3.470700 6.669187 -0.816635 
				CHANNELS 3 Yrotation Zrotation Xrotation
				JOINT lShldr
				{
					OFFSET 3.198488 0.000000 0.000000 
					CHANNELS 3 Zrotation Yrotation Xrotation
					JOINT lForeArm
					{
						OFFSET 10.139888 0.000000 0.000000 
						CHANNELS 3 Yrotation Zrotation Xrotation
						JOINT lHand
						{
							OFFSET 8.370511 0.000000 0.000000 
							CHANNELS 3 Zrotation Yrotation Xrotation
							End Site
							{
								OFFSET 4.083176 0.000000 0.000000 
							}
						}
					}
				}
			}
			JOINT rCollar
			{
				OFFSET -3.470700 6.669187 -0.816635 
				CHANNELS 3 Yrotation Zrotation Xrotation
				JOINT rShldr
				{
					OFFSET -3.198488 0.000000 0.000000 
					CHANNELS 3 Zrotation Yrotation Xrotation
					JOINT rForeArm
					{
						OFFSET -10.139888 0.000000 0.000000 
						CHANNELS 3 Yrotation Zrotation Xrotation
						JOINT rHand
						{
							OFFSET -8.370511 0.000000 0.000000 
							CHANNELS 3 Zrotation Yrotation Xrotation
							End Site
							{
								OFFSET -4.083176 0.000000 0.000000 
							}
						}
					}
				}
			}
		}
	}
	JOINT lThigh
	{
		OFFSET 5.308129 -1.633274 1.361059 
		CHANNELS 3 Xrotation Zrotation Yrotation
		JOINT lShin
		{
			OFFSET -2.041588 -20.007561 0.000000 
			CHANNELS 3 Xrotation Zrotation Yrotation
			JOINT lFoot
			{
				OFFSET 0.000000 -19.190928 -1.224953 
				CHANNELS 3 Xrotation Yrotation Zrotation
				End Site
				{
					OFFSET 0.000000 -2.449906 4.627600 
				}
			}
		}
	}
	JOINT rThigh
	{
		OFFSET -5.308129 -1.633274 1.361059 
		CHANNELS 3 Xrotation Zrotation Yrotation
		JOINT rShin
		{
			OFFSET 2.041588 -20.007561 0.000000 
			CHANNELS 3 Xrotation Zrotation Yrotation
			JOINT rFoot
			{
				OFFSET 0.000000 -19.190928 -1.224953 
				CHANNELS 3 Xrotation Yrotation Zrotation
				End Site
				{
					OFFSET 0.000000 -2.449906 4.627600 
				}
			}
		}
	}
}
MOTION
Frames: 20
Frame Time: 0.016667
8.142533 38.339466 -1.612145 13.869900 -21.247299 -109.949997 -21.445801 1.741120 -0.473991 14.755600 -0.553790 0.026962 25.178900 1.341570 22.297701 14.882300 9.620020 11.253100 2.000000 -2.000000 0.000000 -90.479202 -37.208199 -128.957993 104.628998 -0.177852 0.151539 0.048485 -0.034941 -149.500000 -2.000000 2.000000 0.000000 81.866302 28.360001 -145.423004 -110.801003 0.169764 0.108922 -0.055099 0.014964 -142.272995 -41.877754 22.302103 6.725811 104.994644 -3.030439 4.719802 -12.133364 -7.095682 -1.232258 -4.945116 16.987825 9.513906 59.871929 -1.646965 -3.738434 -26.836044 -1.137600 3.418602 
7.814651 38.271645 -1.400252 14.322100 -22.583799 -111.334000 -20.693100 1.843410 0.076583 14.813500 -1.020240 0.317431 25.006901 1.246000 22.410000 14.801800 9.584300 11.310900 2.000000 -2.000000 0.000000 -90.065903 -39.319801 -130.429993 101.026001 -0.186834 0.153585 0.049536 -0.039357 -151.121002 -2.000000 2.000000 0.000000 83.401604 29.201200 -146.134003 -108.096001 0.175416 0.110917 -0.055723 0.020562 -144.285004 -46.698391 21.763166 5.348923 103.294472 -2.849295 4.735996 -13.515733 -6.897291 -1.466471 -3.075780 16.457321 10.304497 60.251770 -1.675049 -3.732263 -27.483950 -0.823716 3.566371 
7.486433 38.233685 -1.178687 14.665900 -23.946400 -112.636002 -19.986700 1.850060 0.595091 14.861200 -1.554790 0.594441 24.883600 1.094960 22.491100 14.759200 9.499270 11.376200 2.000000 -2.000000 0.000000 -89.399498 -41.324402 -132.080994 97.022003 -0.196941 0.155192 0.050720 -0.043767 -152.751999 -2.000000 2.000000 0.000000 85.249496 29.905899 -146.923996 -104.931999 0.182136 0.112909 -0.056665 0.026864 -146.559998 -51.182381 20.936457 4.078465 100.800102 -2.504369 4.712167 -14.586226 -6.068266 -1.492065 -1.257588 15.674270 10.977340 60.670071 -1.715716 -3.722676 -28.196062 -0.513649 3.751559 
7.164237 38.217331 -0.954068 14.926600 -25.296400 -113.776001 -19.271000 1.931400 0.979742 14.987400 -1.827280 0.793289 24.805901 0.763212 22.566799 14.775500 9.393080 11.437800 2.000000 -2.000000 0.000000 -88.685303 -43.319599 -133.936005 92.578697 -0.208259 0.156143 0.052020 -0.048117 -154.373001 -2.000000 2.000000 0.000000 87.136398 30.571699 -147.792007 -101.367996 0.189826 0.114706 -0.058132 0.034406 -149.304993 -55.286304 19.988461 2.915831 97.666260 -2.046978 4.677816 -15.494698 -4.640368 -1.365916 0.572786 14.751583 11.562384 60.882339 -1.773562 -3.710021 -28.799189 -0.217606 3.907737 
6.848958 38.212826 -0.729250 15.160200 -26.581600 -114.777000 -18.528099 2.150490 1.204270 15.271000 -1.721170 0.901323 24.833700 0.277394 22.660999 14.831000 9.276040 11.502200 2.000000 -2.000000 0.000000 -87.942902 -45.373798 -135.966995 87.656799 -0.220439 0.136648 0.053194 -0.051703 -155.720993 -2.000000 2.000000 0.000000 88.984398 31.198700 -148.733002 -97.451599 0.198385 0.116123 -0.060190 0.042713 -152.360992 -59.158051 19.071001 1.782413 94.082275 -1.520646 4.597047 -16.255247 -2.650111 -1.065373 2.288991 13.765973 12.025641 61.075375 -1.813215 -3.687933 -29.466251 -0.074306 3.995550 
6.543286 38.210255 -0.506232 15.405700 -27.778900 -115.640999 -17.825199 2.392490 1.351940 15.593900 -1.537190 0.983024 24.932199 -0.227471 22.738400 14.926700 9.176930 11.548500 2.000000 -2.000000 0.000000 93.140404 -132.494003 42.022202 82.197800 -0.233409 0.135498 0.063542 -0.063148 -156.354996 -2.000000 2.000000 0.000000 90.910500 31.659901 -149.835007 -93.193802 0.207776 0.116998 -0.062602 0.050639 -155.320007 -62.703091 18.259075 0.707276 90.295296 -0.925870 4.505351 -17.135094 -0.442186 -0.746984 3.860204 12.856308 12.401025 61.218765 -1.878324 -3.672123 -30.029644 0.006116 4.026941 
6.255654 38.211288 -0.283528 15.615800 -28.884199 -116.364998 -17.219299 2.568320 1.490540 15.818800 -1.450110 1.038100 25.063400 -0.622610 22.800200 15.023300 9.106610 11.590300 2.000000 -2.000000 0.000000 94.760002 -130.253998 40.187698 76.152901 -0.247570 0.132792 0.053273 -0.051936 -155.807999 -2.000000 2.000000 0.000000 92.963303 31.848101 -151.123993 -88.623596 0.218133 0.136686 -0.074819 0.067253 -157.917999 -66.019524 17.564943 -0.307007 86.158836 -0.286885 4.400831 -17.687878 1.464392 -0.399646 5.296768 11.939081 12.707358 61.334042 -1.920497 -3.663488 -30.582251 0.093898 4.076458 
5.993469 38.215397 -0.055447 15.784700 -29.879400 -117.013000 -16.691900 2.730190 1.592380 16.014299 -1.382360 1.086340 25.147301 -0.990946 22.862101 15.090200 9.037270 11.627200 2.000000 -2.000000 0.000000 96.924797 -127.858002 38.412399 69.541496 -0.262636 0.128144 0.051631 -0.046863 -153.904007 -2.000000 2.000000 0.000000 94.957298 31.831499 -152.501007 -83.779800 0.229662 0.135920 -0.077296 0.063565 -160.261993 -69.076340 17.050787 -1.261421 82.042885 0.355597 4.230394 -18.170729 2.507878 -0.194998 6.541646 10.995102 12.925406 61.312210 -1.963875 -3.650032 -31.003950 0.268794 4.141912 
5.755446 38.214508 0.184645 15.923400 -30.715500 -117.649002 -16.214001 2.906430 1.649860 16.200100 -1.295080 1.114250 25.192801 -1.365790 22.938299 15.156900 8.958370 11.681700 2.000000 -2.000000 0.000000 99.819504 -125.393997 36.430599 62.666500 -0.277626 0.121504 0.049423 -0.038906 -150.955002 -2.000000 2.000000 0.000000 96.755699 31.668501 -153.917007 -78.711502 0.241612 0.134080 -0.080114 0.069733 -162.682999 -71.806213 16.704290 -2.191593 77.557198 1.018465 4.075663 -18.129395 2.487004 -0.085518 7.519552 10.060892 13.092651 61.495712 -2.009948 -3.642234 -31.531582 0.443988 4.234990 
5.536095 38.199566 0.432430 16.046600 -31.429001 -118.299004 -15.785400 3.098050 1.693400 16.385799 -1.188250 1.121780 25.191500 -1.784590 22.993099 15.212700 8.851070 11.737000 2.000000 -2.000000 0.000000 103.570999 -123.005997 33.961102 55.830601 -0.291635 0.113171 0.047211 -0.028642 -147.205002 -2.000000 2.000000 0.000000 98.290199 31.398199 -155.373001 -73.496597 0.253687 0.131092 -0.084118 0.077482 -165.798996 -74.415047 16.551695 -3.161247 72.913544 1.683622 3.888098 -17.683390 1.558741 -0.002111 8.378237 9.143543 13.263952 61.611763 -2.027995 -3.629907 -32.001274 0.615155 4.302752 
5.331448 38.175247 0.685049 16.142900 -32.098099 -118.944000 -15.366600 3.231870 1.694440 16.552000 -1.081340 1.110840 25.132401 -2.193170 23.072300 15.258300 8.734540 11.790400 2.000000 -2.000000 0.000000 108.363998 -120.820999 30.661699 49.189899 -0.304201 0.103534 0.045420 -0.015863 -142.595993 -2.000000 2.000000 0.000000 99.590202 31.059700 -156.901993 -68.213402 0.265592 0.126958 -0.090244 0.097442 -170.046997 -76.858986 16.451744 -4.256831 69.034790 2.425781 3.667479 -18.006554 0.237620 0.024794 9.066204 8.237169 13.429401 61.815842 -2.058890 -3.631907 -32.478420 0.803157 4.396957 
5.135688 38.144108 0.939499 16.233200 -32.777901 -119.546997 -14.938400 3.336170 1.645380 16.728001 -0.984127 1.071710 25.025400 -2.592900 23.167200 15.284800 8.637830 11.863800 2.000000 -2.000000 0.000000 114.394997 -118.936996 26.307501 42.803200 -0.315157 0.092953 0.044634 -0.000520 -137.106995 -2.000000 2.000000 0.000000 100.646004 30.702299 -158.669998 -62.842300 0.277252 0.121650 179.910995 179.901001 4.953330 -79.128876 16.340464 -5.474011 65.600616 3.183957 3.488518 -18.753723 -1.165311 0.058613 9.727928 7.138944 13.533658 61.942638 -2.065275 -3.632234 -32.902081 1.136090 4.625656 
4.942196 38.106396 1.196092 16.315599 -33.459000 -120.086998 -14.480900 3.395620 1.560970 16.933100 -0.896642 1.004040 24.840700 -2.966890 23.287800 15.282000 8.551630 11.933300 2.000000 -2.000000 0.000000 121.735001 -117.539001 20.935900 36.894901 -0.324186 0.082136 0.045365 0.005552 -131.442993 -2.000000 2.000000 0.000000 101.429001 30.355700 -160.888000 -57.227100 0.288856 0.114960 179.903000 179.891006 0.226786 -81.102280 16.156111 -6.807861 62.732979 4.013062 3.359288 -19.818506 -2.046426 0.083396 10.380960 6.100259 13.525111 62.020863 -2.059170 -3.626482 -33.262177 1.421655 4.760838 
4.743627 38.059170 1.456520 16.363199 -34.125999 -120.538002 -14.022900 3.426840 1.485040 17.148100 -0.838358 0.938598 24.628300 -3.336170 23.386999 15.278700 8.446280 12.010200 2.000000 -2.000000 0.000000 129.981003 -116.879997 14.862000 31.758200 -0.331095 0.072018 0.047253 0.019118 -126.551003 -2.000000 2.000000 0.000000 101.861000 29.971600 -163.740005 -51.348099 0.300241 0.106775 179.895004 179.873993 -3.513430 -82.857712 15.909693 -8.251363 60.628468 4.866008 3.298051 -21.014008 -2.056948 0.065057 10.973148 5.051070 13.436049 62.138870 -2.055093 -3.640486 -33.626892 1.647152 4.852382 
4.535656 38.003952 1.721379 16.357300 -34.752602 -120.903999 -13.603300 3.452400 1.449390 17.333700 -0.809265 0.895174 24.428301 -3.727770 23.441200 15.284000 8.302310 12.061500 2.000000 -2.000000 0.000000 138.384995 -117.120003 8.551800 27.685900 -0.335912 0.063581 0.049203 0.028263 -123.210999 -2.000000 2.000000 0.000000 101.901001 29.481701 -167.276993 -45.371498 0.310893 0.097303 179.889999 179.869003 -6.228290 -84.323517 15.749266 -9.497249 59.104107 5.696404 3.297853 -22.148729 -1.120369 0.048683 11.492973 3.973845 13.304348 62.285915 -2.042971 -3.639056 -34.035202 1.817174 4.916982 
4.317945 37.943336 1.993160 16.296400 -35.339199 -121.181000 -13.202700 3.452640 1.429230 17.480200 -0.809379 0.863808 24.250099 -4.139750 23.469900 15.319000 8.157470 12.105700 2.000000 -2.000000 0.000000 146.233994 -118.198997 2.358980 24.668200 -0.339088 0.057121 0.049985 0.031337 -122.078003 -2.000000 2.000000 0.000000 101.541000 28.856899 -171.546005 -39.609798 0.320176 0.087169 179.886002 179.865005 -8.044690 -85.586136 15.733057 -10.434973 58.335751 6.438523 3.375546 -23.089785 0.654784 -0.072654 11.938385 2.886459 13.133785 62.491356 -2.040865 -3.642031 -34.469803 2.031912 4.983397 
4.096402 37.882977 2.272579 16.109699 -35.847198 -121.310997 -12.840500 3.424560 1.443490 17.616899 -0.848491 0.834583 24.032801 -4.494880 23.493099 15.314900 8.023400 12.137800 2.000000 -2.000000 0.000000 153.184006 -119.973000 -3.189560 22.627199 -0.341041 0.052660 0.048829 0.026694 -123.787003 -2.000000 2.000000 0.000000 -79.161797 151.990005 3.286280 -34.316799 0.327767 0.077080 -0.115343 0.125858 171.408005 -86.576927 15.892826 -11.085320 57.900116 7.021235 3.462788 -23.290432 3.006311 -0.187126 12.256428 1.779655 12.929300 62.726906 -2.035836 -3.661382 -34.924442 2.213769 5.075070 
3.879646 37.828159 2.560535 15.747200 -36.224701 -121.240997 -12.545800 3.345250 1.485270 17.724199 -0.946109 0.837816 23.744699 -4.749200 23.530800 15.272000 7.909640 12.166900 2.000000 -2.000000 0.000000 159.121002 -122.266998 -7.723270 21.455299 -0.342090 0.050068 0.046735 0.016127 -127.635002 -2.000000 2.000000 0.000000 -80.159500 153.177002 -2.927540 -29.639000 0.333677 0.067615 179.888000 179.876999 -7.214630 -87.409340 16.057407 -11.748710 57.928051 7.466705 3.566138 -23.030855 5.217749 -0.335339 12.381014 0.663016 12.699865 62.990940 -2.033483 -3.661970 -35.402008 2.382416 5.123728 
3.672505 37.778866 2.866949 15.208100 -36.411900 -120.928001 -12.328400 3.234380 1.578910 17.792400 -1.170510 0.876812 23.426201 -4.914540 23.528799 15.200500 7.825420 12.179700 2.000000 -2.000000 0.000000 -15.829900 -55.095200 168.768005 21.094000 -0.342403 0.049265 0.045272 0.004544 -131.804993 -2.000000 2.000000 0.000000 98.537399 25.268700 169.666000 -25.664301 0.338077 0.059215 179.895004 179.873001 -3.874760 -87.930222 16.106422 -12.714941 57.816177 7.808954 3.648332 -22.550205 6.760766 -0.453679 12.246723 -0.453908 12.458114 63.256821 -1.989348 -3.667011 -35.871361 2.451214 5.093957 
3.479024 37.741150 3.165689 14.601200 -36.450401 -120.375000 -12.169200 3.165830 1.729100 17.850800 -1.375420 0.943885 23.117800 -5.042220 23.468500 15.139200 7.750460 12.156800 2.000000 -2.000000 0.000000 -11.525600 -52.327900 166.126999 21.211201 -0.342302 0.049525 0.044746 -0.003724 -134.764008 -2.000000 2.000000 0.000000 96.830299 23.433100 161.054001 -22.344000 0.341299 0.051978 179.903000 179.891006 0.422098 -88.182121 16.092726 -13.838940 57.646160 8.124999 3.721904 -22.355949 7.388595 -0.491584 12.027237 -1.383340 12.164236 63.472427 -1.985299 -3.677842 -36.234432 2.297546 4.939965 
